<svg width="44" height="44" viewBox="0 0 44 44" fill="none" xmlns="http://www.w3.org/2000/svg">
<g clip-path="url(#clip0_135_1734)">
<path d="M21.3272 43.8067C14.8064 39.8086 9.59878 33.9888 6.34699 27.0655C3.68885 21.276 2.50198 14.9196 2.89183 8.56098C2.90988 8.26653 3.02804 7.98709 3.22671 7.76901C3.42539 7.55094 3.69264 7.40733 3.98415 7.362C9.54349 6.45462 13.255 5.84261 21.2595 0.236759C21.476 0.0826236 21.7351 -0.000141717 22.0008 1.82157e-07C22.2665 0.000142081 22.5256 0.0831841 22.7418 0.23755C30.3885 5.59296 33.9345 6.36883 40.0156 7.362C40.3073 7.40729 40.5748 7.55099 40.7735 7.76923C40.9723 7.98747 41.0904 8.26713 41.1084 8.56178C41.4982 14.9201 40.3113 21.2763 37.6532 27.0655C34.4014 33.9888 29.1938 39.8086 22.673 43.8068C22.4712 43.9331 22.2381 44.0001 22.0001 44C21.7621 44 21.5289 43.933 21.3272 43.8067ZM4.45881 8.88871C4.12664 14.9096 5.26804 20.9206 7.78405 26.4007C10.8772 32.9854 15.8159 38.5303 22.0001 42.3619C28.1843 38.5303 33.123 32.9854 36.2161 26.4007C38.7323 20.9207 39.8737 14.9096 39.5414 8.88871C33.8033 7.95382 29.8938 7.15905 22.0001 1.65066C14.0594 7.19269 10.1112 7.96787 4.45881 8.88871Z" fill="#323232"/>
<path d="M21.5644 41.1452C15.8938 37.4315 11.3706 32.2108 8.50251 26.0691C6.22814 21.103 5.1 15.6889 5.20162 10.2277C5.20513 10.0428 5.27327 9.86496 5.3942 9.72503C5.51514 9.5851 5.68124 9.49191 5.8637 9.46165C11.1897 8.57653 15.2054 7.24297 21.5543 2.92012C21.6855 2.83006 21.8409 2.78186 22 2.78186C22.1591 2.78186 22.3145 2.83006 22.4457 2.92012C28.9903 7.37735 33.0676 8.61938 38.1363 9.46165C38.3187 9.4919 38.4848 9.58507 38.6058 9.72501C38.7267 9.86494 38.7948 10.0428 38.7983 10.2277C38.9 15.6889 37.7718 21.103 35.4974 26.0691C32.629 32.2106 28.1059 37.4313 22.4356 41.1452C22.3063 41.2304 22.1548 41.2759 22 41.2759C21.8451 41.2759 21.6937 41.2304 21.5644 41.1452ZM6.77899 10.9119C6.77822 15.9137 7.85626 20.8569 9.93957 25.4043C12.6067 31.1182 16.7751 36.0008 22 39.5311C27.2246 36.0005 31.3929 31.118 34.0604 25.4043C36.1436 20.8569 37.2216 15.9137 37.221 10.9119C32.2002 10.0385 28.0024 8.56199 22 4.52955C16.0347 8.53626 11.8441 10.0308 6.77899 10.9119Z" fill="#323232"/>
<path d="M19.7612 31.4008V31.0104C18.2921 30.576 17.0258 29.6324 16.1893 28.3489C14.6247 25.8418 18.4166 23.4659 19.9877 25.9771C20.2269 26.277 20.5343 26.5152 20.8845 26.6717C21.2346 26.8283 21.6171 26.8987 22 26.877C24.3245 26.877 25.4237 24.5682 21.7279 24.1914C13.7046 23.3833 13.5599 14.9258 19.7612 12.9805V12.5878C19.7612 9.62968 24.2388 9.62819 24.2388 12.5878V12.979C25.6649 13.404 26.9019 14.3059 27.7426 15.5339C29.365 18.0096 25.6154 20.4564 23.9979 17.9883C23.7561 17.6968 23.4496 17.4658 23.1027 17.3136C22.7559 17.1614 22.3783 17.0922 22 17.1116C19.7354 17.1116 18.5524 19.3695 22.1647 19.7354C30.2552 20.5621 30.4993 29.0442 24.2388 31.0081V31.4008C24.2388 34.3589 19.7612 34.3604 19.7612 31.4008ZM17.5326 27.5109C17.8981 28.057 18.3681 28.5254 18.9155 28.8889C19.463 29.2525 20.077 29.504 20.7222 29.629C20.8985 29.6674 21.0565 29.7651 21.1697 29.9057C21.2829 30.0463 21.3445 30.2215 21.3444 30.402V31.4008C21.3444 31.5747 21.4135 31.7414 21.5365 31.8643C21.6594 31.9873 21.8261 32.0563 22 32.0563C22.1739 32.0563 22.3406 31.9873 22.4635 31.8643C22.5865 31.7414 22.6555 31.5747 22.6555 31.4008V30.4005C22.6555 30.2202 22.7171 30.0453 22.83 29.9047C22.943 29.7641 23.1006 29.6663 23.2767 29.6275C28.3486 28.5085 28.6277 21.9853 22.0146 21.3118C16.4275 20.7433 17.6687 15.5286 22 15.5286C22.6414 15.5036 23.2793 15.6355 23.8581 15.9128C24.437 16.1902 24.9394 16.6047 25.3218 17.1203C25.4187 17.2622 25.5673 17.3603 25.7358 17.3937C25.9043 17.4271 26.0792 17.393 26.2228 17.2988C26.3664 17.2047 26.4674 17.0579 26.504 16.8901C26.5405 16.7222 26.5098 16.5468 26.4183 16.4014C25.6741 15.3409 24.5487 14.6094 23.2775 14.3597C23.1012 14.3211 22.9434 14.2234 22.8303 14.0828C22.7172 13.9422 22.6555 13.7672 22.6555 13.5867V12.5879C22.6555 12.414 22.5865 12.2473 22.4635 12.1244C22.3406 12.0014 22.1739 11.9324 22 11.9324C21.8261 11.9324 21.6594 12.0014 21.5365 12.1244C21.4135 12.2473 21.3444 12.414 21.3444 12.5879V13.5882C21.3445 13.7685 21.2829 13.9435 21.17 14.084C21.057 14.2246 20.8994 14.3224 20.7233 14.3612C15.7291 15.4631 15.3167 21.9535 21.8759 22.6151C27.5487 23.1935 26.3948 28.4602 22 28.4602C21.3479 28.4882 20.6991 28.3524 20.113 28.0652C19.5268 27.778 19.022 27.3485 18.6446 26.8159C18.5523 26.6687 18.4054 26.5642 18.2361 26.5252C18.0668 26.4862 17.8889 26.5161 17.7416 26.6081C17.5943 26.7002 17.4895 26.847 17.4503 27.0163C17.4111 27.1855 17.4407 27.3634 17.5326 27.5109Z" fill="#323232"/>
</g>
<defs>
<clipPath id="clip0_135_1734">
<rect width="44" height="44" fill="white"/>
</clipPath>
</defs>
</svg>
